<svg width="100" height="31" viewBox="0 0 100 31" fill="none" xmlns="http://www.w3.org/2000/svg">
<path d="M21.0288 0.995262L18.1991 1.98983L18.1836 9.59309C18.168 17.305 18.194 18.6474 18.3601 19.6692C18.7859 22.2887 19.9074 24.5279 21.7557 26.4518C22.7059 27.4409 23.5886 28.0985 24.8295 28.7453C26.2833 29.5007 28.2407 29.9953 29.7672 29.9953H30.0631V26.9627V23.9246L29.5595 23.892C28.8637 23.8485 28.1265 23.6366 27.4359 23.2833C25.5564 22.3268 24.2999 20.4898 24.0455 18.3377C24.0143 18.0442 23.9883 16.8322 23.9883 15.3322V12.8213H27.0257H30.0631V9.99526V7.16917H27.0257H23.9883V3.58222C23.9883 0.745262 23.9728 -0.00473785 23.926 0.000696182C23.8897 0.000696182 22.5865 0.451784 21.0288 0.995262Z" fill="#FAFAFA"/>
<path d="M90.9625 0.994577L88.1328 1.98914V10.4891C88.1328 18.4022 88.138 19.0272 88.2263 19.5326C88.6832 22.2283 89.6853 24.3098 91.4194 26.2011C92.4734 27.3424 93.4288 28.0815 94.7216 28.7446C96.1962 29.5 97.6448 29.8859 99.3478 29.9783L99.9968 30.0109V26.9674V23.9239L99.4672 23.8913C99.1712 23.8696 98.7559 23.8098 98.5378 23.75C95.9573 23.0544 94.1712 20.875 93.922 18.1033C93.8961 17.7826 93.8701 16.462 93.8701 15.1685V12.8207H96.9334H99.9968V9.99458V7.16849H96.9334H93.8701V3.58154C93.8701 1.60871 93.8545 -0.00542259 93.8337 1.33514e-05C93.8078 1.33514e-05 92.5201 0.451099 90.9625 0.994577Z" fill="#FAFAFA"/>
<path d="M6.69263 6.68455C4.91693 6.85303 3.20353 7.79868 2.03011 9.26607C-0.965732 13.0215 0.207684 18.6411 4.42887 20.728C5.46729 21.2443 6.30841 21.4074 7.91796 21.4074C9.1433 21.4074 9.35618 21.44 9.61059 21.6628C10.2181 22.2008 9.99481 23.19 9.21599 23.4128C9.0758 23.4508 7.60125 23.4726 4.50675 23.4726H0V26.6248V29.7824L5.05192 29.7606C9.57425 29.7443 10.135 29.7335 10.4621 29.6519C12.0976 29.2389 13.4372 28.3911 14.4029 27.1628C15.7944 25.3856 16.324 23.1574 15.8878 20.9237C15.3946 18.3911 13.6085 16.2824 11.2513 15.4563C10.4102 15.1628 9.94289 15.0976 8.46314 15.065C7.09761 15.0324 6.98338 15.0161 6.72897 14.7824C6.56802 14.6356 6.43821 14.3041 6.43821 14.0432C6.43821 13.5922 6.74455 13.1574 7.15472 13.0378C7.27933 13.0052 8.76947 12.9835 11.3863 12.9835H15.4206V9.80411V6.62477L11.3084 6.6302C9.04465 6.63563 6.96781 6.66281 6.69263 6.68455Z" fill="#FAFAFA"/>
<path d="M42.6816 6.68472C40.802 6.90754 38.8083 7.67385 37.2402 8.76624C35.3659 10.076 33.9329 11.7608 32.936 13.826C32.4895 14.7499 32.2454 15.4293 32.0118 16.3749C31.6483 17.8641 31.6587 17.6684 31.638 23.9184L31.6172 29.5597H34.53H37.4375V24.2988C37.4375 19.8315 37.4479 18.9673 37.5154 18.5271C37.7595 16.9673 38.585 15.4293 39.7169 14.413C40.8955 13.3586 42.1416 12.8206 43.7356 12.6847L44.1354 12.6467V9.6358V6.62493L43.6058 6.63037C43.3098 6.6358 42.8944 6.65754 42.6816 6.68472Z" fill="#FAFAFA"/>
<path d="M53.3244 7.00002C51.1073 7.19567 49.0876 8.05436 47.3067 9.54893C44.2641 12.1033 42.7584 16.4131 43.4853 20.5C43.7397 21.9239 44.1603 23.1033 44.8508 24.3152C45.9619 26.2555 47.4157 27.6576 49.4355 28.7228C50.7698 29.4239 52.6805 29.8859 54.2641 29.8859C55.6193 29.8859 57.3067 29.5218 58.5268 28.9565C58.7916 28.837 59.0409 28.7228 59.0772 28.7065C59.1239 28.6848 59.1395 28.7881 59.1395 29.1196V29.5598H62.0211H64.9028V18.2555V6.9511H62.0211H59.1395V7.54893C59.1395 7.87502 59.1291 8.14676 59.1187 8.14676C59.1084 8.14676 58.937 8.07067 58.7397 7.97828C57.1146 7.21741 55.0793 6.84784 53.3244 7.00002ZM55.0949 13.1196C56.1333 13.3098 57.0471 13.7989 57.8363 14.5815C58.5891 15.337 59.1499 16.4674 59.3264 17.6033C59.6328 19.5544 58.8228 21.6033 57.2963 22.7391C56.9017 23.0381 56.1489 23.4294 55.7127 23.5707C54.8768 23.837 53.8124 23.8641 52.9869 23.6413C52.4832 23.5055 51.7044 23.1196 51.2787 22.7989C50.5725 22.2663 49.8612 21.3478 49.5341 20.5489C49.207 19.7446 49.1447 19.3968 49.1499 18.4185C49.1499 17.3913 49.2278 17.0055 49.5808 16.2174C49.856 15.5978 50.1104 15.2065 50.5621 14.712C51.7408 13.4185 53.4542 12.8152 55.0949 13.1196Z" fill="#FAFAFA"/>
<path d="M76.4794 7.01049C74.2572 7.21157 72.144 8.14092 70.3683 9.6844C69.3143 10.6029 68.1617 12.1681 67.6009 13.4453C66.874 15.0866 66.5625 16.5974 66.5625 18.4616C66.5625 21.4779 67.5594 24.1246 69.5272 26.3203C72.6009 29.7496 77.5594 30.8257 81.7442 28.967C83.0578 28.3855 84.1949 27.5757 85.2281 26.4942C85.7889 25.9072 86.5002 25.0105 86.5002 24.8855C86.5002 24.8366 81.8117 21.4616 81.739 21.4616C81.7183 21.4616 81.6456 21.5431 81.5781 21.6464C81.3548 21.9887 80.7266 22.6029 80.2904 22.9072C78.8263 23.9235 76.9259 24.0811 75.3579 23.3094C74.3351 22.8148 73.5199 22.0159 72.9592 20.967C72.5075 20.1301 72.2686 18.8529 72.3725 17.8801C72.6321 15.5703 74.0911 13.8094 76.2614 13.1898C76.8533 13.0214 78.0371 13.0214 78.6809 13.1898C79.2105 13.3257 79.9529 13.679 80.4047 14.0051C80.7473 14.2496 81.251 14.7387 81.5262 15.0974L81.7079 15.3366L84.0339 13.6301C85.3164 12.6898 86.386 11.9072 86.4171 11.8855C86.5002 11.8257 85.9083 11.0594 85.2281 10.3474C83.5095 8.54309 81.4015 7.42896 79.0547 7.08657C78.3382 6.98331 77.1648 6.94527 76.4794 7.01049Z" fill="#FAFAFA"/>
</svg>
